<svg width="106" height="51" viewBox="0 0 106 51" fill="none" xmlns="http://www.w3.org/2000/svg">
<mask id="path-1-inside-1_330_188" fill="white">
<path fill-rule="evenodd" clip-rule="evenodd" d="M59.2279 6.01575H101C103.761 6.01575 106 8.25432 106 11.0157V45.1357C106 47.8972 103.761 50.1357 101 50.1357H5C2.23858 50.1357 0 47.8972 0 45.1357V11.0157C0 8.25433 2.23858 6.01575 5 6.01575H47.5L53.364 0.135795L59.2279 6.01575Z"/>
</mask>
<path fill-rule="evenodd" clip-rule="evenodd" d="M59.2279 6.01575H101C103.761 6.01575 106 8.25432 106 11.0157V45.1357C106 47.8972 103.761 50.1357 101 50.1357H5C2.23858 50.1357 0 47.8972 0 45.1357V11.0157C0 8.25433 2.23858 6.01575 5 6.01575H47.5L53.364 0.135795L59.2279 6.01575Z" fill="#282F72"/>
<path fill-rule="evenodd" clip-rule="evenodd" d="M59.2279 6.01575H101C103.761 6.01575 106 8.25432 106 11.0157V45.1357C106 47.8972 103.761 50.1357 101 50.1357H5C2.23858 50.1357 0 47.8972 0 45.1357V11.0157C0 8.25433 2.23858 6.01575 5 6.01575H47.5L53.364 0.135795L59.2279 6.01575Z" fill="url(#paint0_radial_330_188)" fill-opacity="0.2"/>
<path d="M59.2279 6.0157L57.8118 7.42798L58.3979 8.0157H59.2279V6.0157ZM47.5 6.0157V8.0157H48.33L48.9161 7.42798L47.5 6.0157ZM53.364 0.135742L54.7801 -1.27654L53.364 -2.69654L51.9478 -1.27654L53.364 0.135742ZM59.2279 8.0157H101V4.0157H59.2279V8.0157ZM101 8.0157C102.657 8.0157 104 9.35884 104 11.0157H108C108 7.1497 104.866 4.0157 101 4.0157V8.0157ZM104 11.0157V45.1357H108V11.0157H104ZM104 45.1357C104 46.7925 102.657 48.1357 101 48.1357V52.1357C104.866 52.1357 108 49.0017 108 45.1357H104ZM101 48.1357H5V52.1357H101V48.1357ZM5 48.1357C3.34315 48.1357 2 46.7925 2 45.1357H-2C-2 49.0017 1.13401 52.1357 5 52.1357V48.1357ZM2 45.1357V11.0157H-2V45.1357H2ZM2 11.0157C2 9.35884 3.34315 8.0157 5 8.0157V4.0157C1.13401 4.0157 -2 7.1497 -2 11.0157H2ZM5 8.0157H47.5V4.0157H5V8.0157ZM48.9161 7.42798L54.7801 1.54803L51.9478 -1.27654L46.0839 4.60341L48.9161 7.42798ZM51.9478 1.54803L57.8118 7.42798L60.6441 4.60341L54.7801 -1.27654L51.9478 1.54803Z" fill="url(#paint1_linear_330_188)" mask="url(#path-1-inside-1_330_188)"/>
<defs>
<radialGradient id="paint0_radial_330_188" cx="0" cy="0" r="1" gradientUnits="userSpaceOnUse" gradientTransform="translate(100 45.1221) rotate(-160.607) scale(99.6541 212.293)">
<stop offset="0.0335395" stop-color="#4F60F6"/>
<stop offset="0.60141" stop-color="#161626"/>
</radialGradient>
<linearGradient id="paint1_linear_330_188" x1="101" y1="53.6453" x2="31.8724" y2="4.18863" gradientUnits="userSpaceOnUse">
<stop offset="0.105556" stop-color="#4F60F6"/>
<stop offset="0.659125" stop-opacity="0"/>
</linearGradient>
</defs>
</svg>
