<svg width="50" height="50" viewBox="0 0 50 50" fill="none" xmlns="http://www.w3.org/2000/svg">
<circle cx="25" cy="25" r="24.5" fill="#4F60F6" fill-opacity="0.25"/>
<circle cx="25" cy="25" r="24.5" fill="url(#paint0_radial_330_235)" fill-opacity="0.2"/>
<circle cx="25" cy="25" r="24.5" stroke="url(#paint1_linear_330_235)"/>
<path d="M25 21.8763C23.2797 21.8763 21.8758 23.2802 21.8758 25.0005C21.8758 26.7208 23.2797 28.1247 25 28.1247C26.7203 28.1247 28.1242 26.7208 28.1242 25.0005C28.1242 23.2802 26.7203 21.8763 25 21.8763ZM34.3703 25.0005C34.3703 23.7068 34.382 22.4247 34.3094 21.1333C34.2367 19.6333 33.8945 18.3021 32.7976 17.2052C31.6984 16.106 30.3695 15.7661 28.8695 15.6935C27.5758 15.6208 26.2937 15.6325 25.0023 15.6325C23.7086 15.6325 22.4266 15.6208 21.1351 15.6935C19.6351 15.7661 18.3039 16.1083 17.207 17.2052C16.1078 18.3044 15.768 19.6333 15.6953 21.1333C15.6226 22.4271 15.6344 23.7091 15.6344 25.0005C15.6344 26.2919 15.6226 27.5763 15.6953 28.8677C15.768 30.3677 16.1101 31.6989 17.207 32.7958C18.3062 33.895 19.6351 34.2349 21.1351 34.3075C22.4289 34.3802 23.7109 34.3685 25.0023 34.3685C26.2961 34.3685 27.5781 34.3802 28.8695 34.3075C30.3695 34.2349 31.7008 33.8927 32.7976 32.7958C33.8969 31.6966 34.2367 30.3677 34.3094 28.8677C34.3844 27.5763 34.3703 26.2943 34.3703 25.0005ZM25 29.8075C22.3398 29.8075 20.193 27.6607 20.193 25.0005C20.193 22.3403 22.3398 20.1935 25 20.1935C27.6601 20.1935 29.807 22.3403 29.807 25.0005C29.807 27.6607 27.6601 29.8075 25 29.8075ZM30.0039 21.1193C29.3828 21.1193 28.8812 20.6177 28.8812 19.9966C28.8812 19.3755 29.3828 18.8739 30.0039 18.8739C30.625 18.8739 31.1266 19.3755 31.1266 19.9966C31.1267 20.1441 31.0978 20.2901 31.0415 20.4264C30.9851 20.5627 30.9024 20.6866 30.7981 20.7908C30.6939 20.8951 30.57 20.9778 30.4337 21.0342C30.2974 21.0905 30.1514 21.1194 30.0039 21.1193Z" fill="#F2F2FF"/>
<defs>
<radialGradient id="paint0_radial_330_235" cx="0" cy="0" r="1" gradientUnits="userSpaceOnUse" gradientTransform="translate(48.4848 50) rotate(-130.527) scale(48.1883 135.697)">
<stop stop-color="#4F60F6"/>
<stop offset="0.661099" stop-color="#2C3270"/>
</radialGradient>
<linearGradient id="paint1_linear_330_235" x1="49.0566" y1="46.0227" x2="4.67216" y2="38.1257" gradientUnits="userSpaceOnUse">
<stop offset="0.0522374" stop-color="#4F60F6"/>
<stop offset="1" stop-color="#20265B"/>
</linearGradient>
</defs>
</svg>
