<svg width="134" height="51" viewBox="0 0 134 51" fill="none" xmlns="http://www.w3.org/2000/svg">
<g clip-path="url(#clip0_330_252)">
<path d="M54.8989 34.8661C53.6547 34.8885 52.4203 34.6419 51.2808 34.1434C50.2757 33.6901 49.4258 32.9534 48.8362 32.0242C48.2173 30.9961 47.9089 29.8121 47.9479 28.6139V27.9724H50.7104V28.6139C50.6712 29.146 50.7543 29.68 50.9534 30.1753C51.1525 30.6706 51.4623 31.1141 51.8594 31.472C52.7319 32.1414 53.8155 32.4783 54.9152 32.4221C55.9529 32.4983 56.9847 32.2111 57.8325 31.6101C58.1471 31.3601 58.3992 31.0408 58.5688 30.6773C58.7385 30.3138 58.8212 29.916 58.8104 29.5152C58.8326 29.0111 58.6672 28.5167 58.3459 28.1267C57.9914 27.7345 57.5428 27.4383 57.0421 27.266C56.3762 27.0217 55.6958 26.8183 55.0049 26.6571L54.0433 26.4297C53.0013 26.1931 51.9858 25.8531 51.0119 25.4147C50.223 25.0551 49.5429 24.4951 49.0399 23.7908C48.5472 23.0246 48.3025 22.1261 48.3391 21.2168C48.3169 20.2448 48.602 19.2904 49.154 18.4886C49.7043 17.719 50.4612 17.1196 51.3379 16.7591C52.3682 16.3248 53.4789 16.1118 54.5974 16.1339C55.7523 16.1153 56.8985 16.3365 57.9629 16.7835C58.9093 17.1761 59.7216 17.8331 60.3016 18.6754C60.888 19.6277 61.172 20.7343 61.1165 21.8502V22.7758H58.3866V21.8502C58.4154 21.1914 58.2481 20.5389 57.9059 19.9745C57.5897 19.4885 57.1235 19.118 56.5776 18.9189C55.9453 18.681 55.2732 18.5652 54.5974 18.5779C53.6904 18.5235 52.7899 18.7627 52.0305 19.26C51.552 19.6385 51.2331 20.1818 51.1365 20.783C51.04 21.3841 51.1729 21.9995 51.509 22.5079C51.8231 22.8902 52.2297 23.1864 52.6906 23.3686C53.3147 23.625 53.9612 23.8234 54.6219 23.9613L55.5753 24.1887C56.6376 24.413 57.6749 24.7421 58.6719 25.1711C59.501 25.5273 60.2269 26.0858 60.7824 26.7951C61.3415 27.5658 61.6281 28.4997 61.5973 29.4502C61.6174 30.4524 61.3334 31.4373 60.7824 32.2759C60.2023 33.1085 59.4009 33.7636 58.4681 34.1678C57.3436 34.6567 56.1255 34.895 54.8989 34.8661Z" fill="white"/>
<path d="M70.5204 34.8662C69.3374 34.8823 68.1692 34.6031 67.1223 34.0542C66.1458 33.5499 65.3344 32.778 64.7835 31.8294C64.209 30.7629 63.9279 29.5639 63.9687 28.3541V27.9725C63.9269 26.7678 64.2082 25.5738 64.7835 24.5135C65.3373 23.559 66.1472 22.7773 67.1223 22.2562C68.1692 21.7073 69.3374 21.4282 70.5204 21.4443C71.7057 21.4302 72.876 21.7092 73.9266 22.2562C74.9073 22.7725 75.721 23.5552 76.2735 24.5135C76.8664 25.5686 77.162 26.7637 77.1291 27.9725V28.3541C77.161 29.568 76.8655 30.7681 76.2735 31.8294C75.7309 32.7994 74.915 33.5898 73.9266 34.1029C72.8716 34.6331 71.7015 34.8952 70.5204 34.8662ZM70.5204 32.4952C71.0417 32.5118 71.5609 32.4216 72.0458 32.2303C72.5308 32.0389 72.9712 31.7505 73.3399 31.3828C73.72 30.9643 74.0124 30.4743 74.1999 29.9417C74.3874 29.4091 74.4662 28.8445 74.4318 28.2811V28.0456C74.4658 27.4841 74.3875 26.9215 74.2014 26.3904C74.0154 25.8594 73.7253 25.3704 73.348 24.952C72.5767 24.2268 71.5564 23.8229 70.4959 23.8229C69.4355 23.8229 68.4151 24.2268 67.6438 24.952C67.2625 25.3684 66.9687 25.8566 66.7797 26.3879C66.5908 26.9192 66.5105 27.4829 66.5437 28.0456V28.2811C66.5104 28.845 66.5905 29.41 66.7794 29.9426C66.9684 30.4753 67.2622 30.9649 67.6438 31.3828C68.0189 31.7568 68.4691 32.0478 68.9647 32.2367C69.4604 32.4255 69.9905 32.5081 70.5204 32.479V32.4952Z" fill="white"/>
<path d="M80.4293 34.5088V16.4993H83.1184V34.5088H80.4293Z" fill="white"/>
<path d="M93.712 34.8662C92.7568 34.9155 91.8013 34.7758 90.9006 34.4553C89.9999 34.1348 89.1718 33.6397 88.4641 32.9986C87.1766 31.7536 86.5328 29.9564 86.5328 27.6071V23.393C86.5328 21.0464 87.1766 19.2438 88.4641 18.0015C89.1718 17.3604 89.9999 16.8654 90.9006 16.5448C91.8013 16.2243 92.7568 16.0846 93.712 16.134C94.6279 16.0762 95.5461 16.2063 96.4095 16.5164C97.2729 16.8265 98.0633 17.3098 98.7317 17.9365C99.3386 18.5976 99.8076 19.3724 100.111 20.2157C100.415 21.0591 100.547 21.9542 100.5 22.849V23.0032H97.7049V22.7759C97.75 21.6924 97.3965 20.6299 96.7108 19.7878C96.3226 19.3957 95.853 19.0929 95.335 18.9007C94.817 18.7086 94.263 18.6317 93.712 18.6754C93.111 18.6374 92.5089 18.7286 91.9465 18.943C91.384 19.1573 90.8745 19.4898 90.4524 19.9177C89.6308 20.881 89.2134 22.1228 89.2872 23.3849V27.7046C89.2261 28.9452 89.643 30.1622 90.4524 31.1067C90.8703 31.5417 91.3786 31.8805 91.9416 32.0993C92.5047 32.3181 93.1089 32.4116 93.712 32.3734C94.2736 32.4167 94.8377 32.3334 95.3626 32.1295C95.8874 31.9257 96.3593 31.6066 96.7434 31.196C97.4241 30.3608 97.7774 29.3076 97.7375 28.2323V27.7939H100.5V28.1511C100.542 29.0393 100.408 29.927 100.104 30.7631C99.8009 31.5993 99.3344 32.3673 98.7317 33.023C98.0667 33.657 97.2779 34.1478 96.4143 34.4649C95.5507 34.782 94.6308 34.9186 93.712 34.8662Z" fill="white"/>
<path d="M104.982 20.0964C104.499 20.1099 104.03 19.9318 103.678 19.6011C103.504 19.4331 103.367 19.2308 103.276 19.0071C103.185 18.7835 103.141 18.5433 103.148 18.302C103.14 18.0604 103.182 17.8198 103.274 17.5959C103.365 17.372 103.503 17.1699 103.678 17.0028C104.038 16.6787 104.505 16.4993 104.99 16.4993C105.475 16.4993 105.942 16.6787 106.302 17.0028C106.473 17.1719 106.608 17.3748 106.696 17.5985C106.784 17.8222 106.825 18.0618 106.815 18.302C106.824 18.542 106.782 18.7812 106.694 19.0046C106.606 19.2281 106.472 19.4311 106.302 19.6011C106.126 19.7672 105.919 19.8966 105.692 19.9816C105.465 20.0667 105.224 20.1057 104.982 20.0964ZM103.637 34.5089V21.8259H106.302V34.5089H103.637Z" fill="white"/>
<path d="M115.029 34.5088C114.689 34.5273 114.349 34.4747 114.03 34.3544C113.712 34.2342 113.422 34.0489 113.18 33.8105C112.947 33.5635 112.766 33.2723 112.648 32.9543C112.531 32.6362 112.479 32.2978 112.495 31.9592V24.0588H108.983V21.8258H112.495V17.6279H115.152V21.8258H118.973V24.0588H115.176V31.4964C115.176 32.008 115.421 32.3084 115.901 32.3084H118.566V34.5088H115.029Z" fill="white"/>
<path d="M123.545 39.6487V37.3508H130.643C131.123 37.3508 131.368 37.091 131.368 36.5795V32.6495H130.952C130.78 33.0208 130.539 33.3567 130.243 33.6401C129.882 34.0017 129.445 34.279 128.964 34.4521C128.317 34.6756 127.635 34.7802 126.951 34.7607C126.048 34.7773 125.157 34.556 124.368 34.1192C123.614 33.6903 122.998 33.0567 122.592 32.2923C122.143 31.4277 121.921 30.4639 121.948 29.4909V21.8259H124.604V29.2311C124.567 29.671 124.62 30.1139 124.76 30.5327C124.9 30.9515 125.124 31.3375 125.419 31.667C126.051 32.2237 126.875 32.5148 127.717 32.479C128.214 32.5042 128.711 32.4198 129.172 32.2317C129.632 32.0436 130.045 31.7566 130.382 31.391C131.1 30.5094 131.455 29.3892 131.376 28.2568V21.8259H134.033V37.1073C134.047 37.4508 133.991 37.7936 133.867 38.1148C133.744 38.4359 133.556 38.7285 133.316 38.9748C133.068 39.2124 132.773 39.3963 132.451 39.5151C132.128 39.6339 131.785 39.6849 131.441 39.665L123.545 39.6487Z" fill="white"/>
<path d="M37.4848 29.3853L0.888245 15.5818V20.0801C0.98758 20.9344 1.31207 21.7472 1.82876 22.436C2.34544 23.1248 3.0359 23.6651 3.82999 24.0019L26.2231 33.6563C26.7528 33.8836 26.8505 37.0503 26.4105 37.4076L20.1359 35.9623V40.1764C20.145 40.4025 20.2063 40.6235 20.3151 40.822C20.424 41.0206 20.5774 41.1915 20.7633 41.3213L25.6527 45.0158C25.7899 45.1119 25.9535 45.1634 26.1212 45.1634C26.2889 45.1634 26.4526 45.1119 26.5898 45.0158L35.5535 38.4063C36.2296 37.9015 36.7628 37.2308 37.1013 36.4595C37.4398 35.6883 37.5719 34.8428 37.4848 34.0054V29.3853Z" fill="url(#paint0_linear_330_252)"/>
<path d="M12.2233 18.2209L18.2453 13.5926C18.3388 13.5171 18.4143 13.4218 18.4664 13.3137C18.5186 13.2056 18.546 13.0873 18.5468 12.9674V8.68018H9.58307L12.2233 18.2209Z" fill="url(#paint1_linear_330_252)"/>
<path d="M38.7153 15.2083L38.4056 15.4194C37.0674 16.3423 35.4779 16.8353 33.8504 16.8323C31.9436 16.7992 30.0839 16.2368 28.4803 15.2083L20.5352 9.6788C20.3373 9.50831 20.1741 9.30158 20.0544 9.06982C19.9868 9.29101 19.9511 9.52067 19.9485 9.75188V12.3827C19.947 12.6407 20.0025 12.8959 20.1109 13.1302C20.2193 13.3645 20.3781 13.5722 20.5759 13.7387L28.7737 19.8772C31.4954 22.1832 35.4395 21.5661 38.3812 19.5443L38.6909 19.3332C38.7908 19.2625 38.8735 19.1704 38.9327 19.0636C38.992 18.9567 39.0263 18.8379 39.0331 18.7161V14.8429C38.9619 14.9909 38.8521 15.117 38.7153 15.2083Z" fill="url(#paint2_linear_330_252)"/>
<path d="M21.1219 3.02879C20.8491 3.23343 20.6276 3.49832 20.4749 3.80264C20.3222 4.10696 20.2424 4.44241 20.2418 4.78265V7.3972C20.2404 7.62254 20.2885 7.84545 20.3829 8.05026C20.4772 8.25507 20.6154 8.4368 20.7878 8.58268L28.7411 14.096C31.5198 15.8823 35.3416 16.2558 38.1774 14.3071L38.4871 14.096C38.5625 14.0457 38.6247 13.9782 38.6686 13.8991C38.7126 13.82 38.7369 13.7316 38.7397 13.6413V9.30534C38.7426 9.1813 38.7169 9.05826 38.6647 8.94566C38.6124 8.83306 38.5349 8.73388 38.4382 8.65576L38.5278 8.50148L26.5164 0.527913C26.3419 0.382437 26.1234 0.299397 25.896 0.292039C25.6685 0.28468 25.4452 0.353427 25.2615 0.487314L21.0567 2.92323L21.1219 3.02879Z" fill="url(#paint3_linear_330_252)"/>
<path d="M18.0905 43.5706L13.6983 46.8997C13.5046 47.0328 13.2734 47.1011 13.0382 47.0946C12.7628 47.0971 12.4961 46.9989 12.2885 46.8185L0.317831 37.8624C0.231909 37.7883 0.162515 37.697 0.114109 37.5945V40.9398C0.084621 41.0735 0.0917554 41.2126 0.134765 41.3426C0.177775 41.4726 0.255078 41.5887 0.358576 41.6787L12.4352 50.7728C12.6022 50.908 12.8108 50.9817 13.026 50.9817C13.2412 50.9817 13.4498 50.908 13.6168 50.7728L18.0579 47.4112C18.2459 47.2684 18.3982 47.0841 18.5028 46.8728C18.6075 46.6615 18.6616 46.4289 18.6609 46.1933V42.7749C18.5512 43.0891 18.3532 43.3652 18.0905 43.5706Z" fill="url(#paint4_linear_330_252)"/>
<path d="M0.399285 31.5289V36.1896C0.375479 36.2929 0.379523 36.4007 0.411009 36.5019C0.442495 36.6032 0.5003 36.6943 0.57856 36.7661L12.5411 45.7465C12.5964 45.7972 12.6597 45.8384 12.7285 45.8683C12.8967 45.9131 13.0737 45.9131 13.2419 45.8683C13.3181 45.8418 13.3896 45.8034 13.4538 45.7547L17.846 42.4256C18.0042 42.3066 18.1334 42.1535 18.2237 41.9777C18.314 41.8019 18.3632 41.608 18.3675 41.4106V37.2695L18.5224 36.9366L0.114075 31.1716V31.5289H0.399285Z" fill="url(#paint5_linear_330_252)"/>
<path d="M38.6909 9.74375L38.3812 9.96298C35.4395 11.9929 31.5524 11.4083 28.6759 9.58947L20.6819 4.23045C20.599 4.15148 20.5338 4.05596 20.4905 3.95016C20.4472 3.84436 20.4268 3.73064 20.4307 3.61645C20.4345 3.50226 20.4625 3.39017 20.5128 3.28749C20.5631 3.18482 20.6346 3.09388 20.7226 3.02061L25.6119 0.12999C25.7544 0.020692 25.9292 -0.0385742 26.109 -0.0385742C26.2888 -0.0385742 26.4636 0.020692 26.6061 0.12999L38.7723 8.49331C38.8599 8.57531 38.9282 8.67561 38.9724 8.78701C39.0165 8.89842 39.0353 9.01816 39.0275 9.13767C39.0197 9.25718 38.9855 9.3735 38.9273 9.47828C38.8691 9.58306 38.7884 9.67372 38.6909 9.74375Z" fill="#C0CEFF"/>
<path d="M20.4211 35.3535L26.4105 30.4816C26.5025 30.3923 26.572 30.2826 26.6133 30.1615C26.6547 30.0404 26.6667 29.9112 26.6484 29.7845C26.6302 29.6579 26.5821 29.5373 26.5082 29.4327C26.4343 29.3281 26.3366 29.2423 26.2231 29.1825L3.83001 19.4875C3.04283 19.15 2.3585 18.6122 1.84563 17.928C1.33276 17.2439 1.00936 16.4375 0.907842 15.5896C0.806322 14.7417 0.93025 13.8821 1.2672 13.0969C1.60416 12.3118 2.1423 11.6287 2.8277 11.1161L11.8811 4.32798C12.0159 4.23722 12.1748 4.18872 12.3374 4.18872C12.5001 4.18872 12.659 4.23722 12.7938 4.32798L18.2128 8.01434C18.3079 8.09042 18.3848 8.18683 18.4375 8.29645C18.4903 8.40606 18.5177 8.52609 18.5177 8.64767C18.5177 8.76926 18.4903 8.88928 18.4375 8.9989C18.3848 9.10852 18.3079 9.20493 18.2128 9.28101L12.2233 13.8849C12.1186 13.965 12.0364 14.0707 11.9848 14.1917C11.9331 14.3127 11.9137 14.445 11.9285 14.5758C11.9432 14.7065 11.9916 14.8312 12.069 14.9377C12.1464 15.0443 12.2501 15.1292 12.37 15.1841L34.7061 25.5692C35.4739 25.9282 36.1349 26.48 36.6239 27.1705C37.113 27.861 37.4134 28.6664 37.4956 29.5075C37.5778 30.3487 37.439 31.1967 37.0928 31.9682C36.7466 32.7398 36.2049 33.4083 35.521 33.9081L26.5572 40.5176C26.42 40.6137 26.2564 40.6653 26.0887 40.6653C25.9209 40.6653 25.7573 40.6137 25.6201 40.5176L20.3885 36.5795C20.3024 36.501 20.2343 36.405 20.1887 36.2979C20.143 36.1909 20.121 36.0753 20.1241 35.9591C20.1272 35.8428 20.1553 35.7286 20.2066 35.6241C20.2578 35.5196 20.331 35.4273 20.4211 35.3535Z" fill="#C0CEFF"/>
<path d="M0.31782 31.0338L0.627477 30.8064C3.50403 28.6953 5.77756 27.2013 8.56448 29.4342L18.4816 36.0112C18.5684 36.0874 18.6378 36.1811 18.6854 36.2861C18.7329 36.3911 18.7575 36.5049 18.7575 36.6201C18.7575 36.7353 18.7329 36.8492 18.6854 36.9542C18.6378 37.0592 18.5684 37.1529 18.4816 37.2291L13.7064 41.0698C13.5639 41.1791 13.3891 41.2383 13.2093 41.2383C13.0295 41.2383 12.8547 41.1791 12.7122 41.0698L0.277076 32.2517C0.192849 32.1727 0.12648 32.0767 0.0823826 31.9701C0.0382855 31.8635 0.0174719 31.7488 0.0213264 31.6336C0.0251809 31.5184 0.0536151 31.4053 0.104738 31.3019C0.15586 31.1984 0.228498 31.107 0.31782 31.0338Z" fill="#C0CEFF"/>
</g>
<defs>
<linearGradient id="paint0_linear_330_252" x1="37.5337" y1="30.384" x2="0.912692" y2="30.384" gradientUnits="userSpaceOnUse">
<stop stop-color="#3C78FF"/>
<stop offset="0.15" stop-color="#4383FF"/>
<stop offset="0.28" stop-color="#366CFE"/>
<stop offset="0.41" stop-color="#1B38FD"/>
<stop offset="0.93" stop-color="#1B38FD"/>
<stop offset="1" stop-color="#4B8AFF"/>
</linearGradient>
<linearGradient id="paint1_linear_330_252" x1="9.59122" y1="13.4465" x2="18.5468" y2="13.4465" gradientUnits="userSpaceOnUse">
<stop stop-color="#4383FF"/>
<stop offset="0.04" stop-color="#3C78FF"/>
<stop offset="0.1" stop-color="#4383FF"/>
<stop offset="0.19" stop-color="#366CFE"/>
<stop offset="0.77" stop-color="#1B38FD"/>
<stop offset="0.93" stop-color="#1B38FD"/>
<stop offset="1" stop-color="#3467FE"/>
</linearGradient>
<linearGradient id="paint2_linear_330_252" x1="39.0331" y1="15.2083" x2="19.9485" y2="15.2083" gradientUnits="userSpaceOnUse">
<stop offset="0.07" stop-color="#3C78FF"/>
<stop offset="0.33" stop-color="#4383FF"/>
<stop offset="0.41" stop-color="#366CFE"/>
<stop offset="0.49" stop-color="#1B38FD"/>
<stop offset="0.93" stop-color="#1B38FD"/>
<stop offset="1" stop-color="#3467FE"/>
</linearGradient>
<linearGradient id="paint3_linear_330_252" x1="38.7397" y1="7.94934" x2="20.2418" y2="7.94934" gradientUnits="userSpaceOnUse">
<stop offset="0.07" stop-color="#56A3FD"/>
<stop offset="0.33" stop-color="#5DB3FD"/>
<stop offset="0.41" stop-color="#4482FD"/>
<stop offset="0.49" stop-color="#2650FF"/>
<stop offset="0.93" stop-color="#2650FF"/>
<stop offset="1" stop-color="#4B8AFF"/>
</linearGradient>
<linearGradient id="paint4_linear_330_252" x1="18.6609" y1="44.3014" x2="0.0978125" y2="44.3014" gradientUnits="userSpaceOnUse">
<stop offset="0.07" stop-color="#3949FE"/>
<stop offset="0.2" stop-color="#2751F7"/>
<stop offset="0.34" stop-color="#2B5AFC"/>
<stop offset="0.51" stop-color="#0C24FD"/>
<stop offset="0.89" stop-color="#0C24FD"/>
<stop offset="1" stop-color="#3563FF"/>
</linearGradient>
<linearGradient id="paint5_linear_330_252" x1="18.5224" y1="38.5443" x2="0.114075" y2="38.5443" gradientUnits="userSpaceOnUse">
<stop offset="0.07" stop-color="#3C78FF"/>
<stop offset="0.2" stop-color="#4383FF"/>
<stop offset="0.34" stop-color="#366CFE"/>
<stop offset="0.51" stop-color="#1B38FD"/>
<stop offset="0.89" stop-color="#1B38FD"/>
<stop offset="1" stop-color="#4B8AFF"/>
</linearGradient>
<clipPath id="clip0_330_252">
<rect width="134" height="51" fill="white"/>
</clipPath>
</defs>
</svg>
