<svg width="50" height="50" viewBox="0 0 50 50" fill="none" xmlns="http://www.w3.org/2000/svg">
<rect width="50" height="50" rx="10" fill="#514FF6"/>
<path d="M33.7825 16.2174C33.6813 16.1167 33.5534 16.047 33.4139 16.0164C33.2744 15.9858 33.1291 15.9957 32.995 16.0449L16.495 22.0449C16.3527 22.0989 16.2302 22.1949 16.1437 22.3202C16.0573 22.4454 16.011 22.594 16.011 22.7462C16.011 22.8984 16.0573 23.047 16.1437 23.1722C16.2302 23.2975 16.3527 23.3935 16.495 23.4474L22.9375 26.0199L27.6925 21.2499L28.75 22.3074L23.9725 27.0849L26.5525 33.5275C26.6081 33.667 26.7043 33.7866 26.8286 33.8709C26.953 33.9551 27.0998 34.0001 27.25 33.9999C27.4016 33.9968 27.5486 33.9479 27.6718 33.8595C27.795 33.7711 27.8885 33.6475 27.94 33.5049L33.94 17.0049C33.9911 16.8723 34.0034 16.7278 33.9755 16.5883C33.9477 16.4489 33.8807 16.3203 33.7825 16.2174Z" fill="white"/>
</svg>
