<svg width="50" height="50" viewBox="0 0 50 50" fill="none" xmlns="http://www.w3.org/2000/svg">
<circle cx="25" cy="25" r="24.5" fill="#4F60F6" fill-opacity="0.25"/>
<circle cx="25" cy="25" r="24.5" fill="url(#paint0_radial_330_231)" fill-opacity="0.2"/>
<circle cx="25" cy="25" r="24.5" stroke="url(#paint1_linear_330_231)"/>
<path d="M34.75 18.9602C34.0328 19.2695 33.2524 19.4922 32.4485 19.5789C33.2831 19.0831 33.9081 18.2997 34.2063 17.3758C33.4231 17.8417 32.5651 18.1684 31.6703 18.3414C31.2964 17.9416 30.8441 17.6231 30.3417 17.4058C29.8392 17.1885 29.2974 17.0769 28.75 17.0781C26.5352 17.0781 24.7539 18.8734 24.7539 21.0766C24.7539 21.3859 24.7914 21.6953 24.8524 21.993C21.536 21.8195 18.5781 20.2352 16.6117 17.8094C16.2534 18.4214 16.0657 19.1182 16.068 19.8274C16.068 21.2149 16.7735 22.4383 17.8492 23.1578C17.2153 23.1329 16.5961 22.9586 16.0422 22.6492V22.6984C16.0422 24.6414 17.4156 26.2516 19.2461 26.6219C18.9024 26.7112 18.5489 26.7568 18.1938 26.7578C17.9336 26.7578 17.6875 26.732 17.4391 26.6969C17.9453 28.2813 19.4196 29.432 21.175 29.4695C19.8016 30.5453 18.0813 31.1781 16.2133 31.1781C15.8781 31.1781 15.5688 31.1664 15.2477 31.1289C17.0196 32.2656 19.1219 32.9219 21.386 32.9219C28.736 32.9219 32.7578 26.8328 32.7578 21.5477C32.7578 21.3742 32.7578 21.2008 32.7461 21.0274C33.5242 20.4578 34.2063 19.7524 34.75 18.9602Z" fill="#F2F2FF"/>
<defs>
<radialGradient id="paint0_radial_330_231" cx="0" cy="0" r="1" gradientUnits="userSpaceOnUse" gradientTransform="translate(48.4848 50) rotate(-130.527) scale(48.1883 135.697)">
<stop stop-color="#4F60F6"/>
<stop offset="0.661099" stop-color="#2C3270"/>
</radialGradient>
<linearGradient id="paint1_linear_330_231" x1="49.0566" y1="46.0227" x2="4.67216" y2="38.1257" gradientUnits="userSpaceOnUse">
<stop offset="0.0522374" stop-color="#4F60F6"/>
<stop offset="1" stop-color="#20265B"/>
</linearGradient>
</defs>
</svg>
